# xmcd CD database file
# Copyright (C) 1993-1996 Ti Kan
#
# Track frame offsets:
# 187
# 12687
# 23662
# 34912
# 48325
# 59550
# 71525
# 84600
# 95300
# 106875
# 116450
# 127245
# 139062
# 151032
# 160787
# 171325
# 182387
# 194400
# 206325
# 215275
# 226875
# 243412
# 256887
# 267187
#
# Disc length: 3726 seconds
#
# Revision: 0
# Processed by: cddbd v1.4b41PL1 Copyright (c) Steve Scherf et al.
# Submitted via: inCDius 1.1b5
#
DISCID=470e8c18
DTITLE=Webb Pierce - Sands Of Gold - Sweet Memories
DYEAR=1900
DGENRE=
TTITLE0=Please Help Me I'm Falling (Back To Love With You
TTITLE1=Sands Of Gold
TTITLE2=Blue Mood
TTITLE3=Don't Let Me Cross Over
TTITLE4=Roses Are Red (Violets Are Blue)
TTITLE5=My Love For You
TTITLE6=Detroit City
TTITLE7=Those Wonderful Years 
TTITLE8=Nobody's Darlin' But Mine
TTITLE9=If The Back Door Could Talk
TTITLE10=True Love Never Dies
TTITLE11=The Smile Of A Clown
TTITLE12=Wolverton Mountain
TTITLE13=Send Me The Pillow You Dream On
TTITLE14=Who Do I Think I Am
TTITLE15=Life's Gone And Slipped Away
TTITLE16=Welcome To My World
TTITLE17=Ready
TTITLE18=Love's Gonna' Live Here Again
TTITLE19=Here Comes My Baby
TTITLE20=Hobo And The Rose
TTITLE21=The Champ
TTITLE22=Fool
TTITLE23=Sweet Memories
EXTD=
EXTT0=
EXTT1=
EXTT2=
EXTT3=
EXTT4=
EXTT5=
EXTT6=
EXTT7=
EXTT8=
EXTT9=
EXTT10=
EXTT11=
EXTT12=
EXTT13=
EXTT14=
EXTT15=
EXTT16=
EXTT17=
EXTT18=
EXTT19=
EXTT20=
EXTT21=Narrated By Jackie Fargo
EXTT22=
EXTT23=
PLAYORDER=
